<?xml version="1.0" standalone="no"?>
<!DOCTYPE svg PUBLIC "-//W3C//DTD SVG 20010904//EN"
 "http://www.w3.org/TR/2001/REC-SVG-20010904/DTD/svg10.dtd">
<svg version="1.0" xmlns="http://www.w3.org/2000/svg"
 width="100.000000pt" height="100.000000pt" viewBox="0 0 100.000000 100.000000"
 preserveAspectRatio="xMidYMid meet">
<metadata>
Created by potrace 1.16, written by Peter Selinger 2001-2019
</metadata>
<g transform="translate(0.000000,100.000000) scale(0.100000,-0.100000)"
fill="#000000" stroke="none">
<path d="M30 865 c-9 -11 -11 -32 -5 -73 4 -31 7 -64 7 -72 0 -8 -4 -76 -8
-151 -6 -115 -4 -143 11 -188 16 -49 16 -56 0 -120 -21 -88 -17 -121 17 -140
23 -13 34 -13 100 2 106 24 590 24 696 0 66 -15 77 -16 100 -2 24 13 27 20 24
64 -5 92 -4 139 3 270 4 72 3 160 -2 197 -6 42 -6 88 1 128 7 42 7 67 0 78
-14 22 -75 27 -133 11 -30 -8 -111 -11 -234 -10 -110 1 -217 -3 -260 -10 -65
-11 -79 -10 -148 10 -89 25 -151 27 -169 6z m136 -51 l55 -16 -31 -31 c-35
-36 -36 -43 -11 -56 14 -8 24 -4 46 19 15 16 50 39 79 52 48 22 63 23 286 24
147 1 245 6 263 13 16 6 40 11 54 11 24 0 24 -2 17 -42 -9 -49 -9 -53 1 -208
7 -104 -2 -262 -12 -217 -3 10 -14 17 -29 17 -33 0 -31 -23 11 -111 37 -77 43
-109 23 -109 -7 0 -36 6 -65 14 -78 21 -625 20 -711 -1 -34 -9 -66 -13 -69 -9
-3 3 0 30 7 60 l13 55 25 -17 c23 -15 25 -15 38 3 12 17 11 22 -17 49 -55 54
-64 80 -64 201 0 61 2 137 5 170 2 33 1 79 -4 103 -7 39 -6 42 14 42 12 0 46
-7 76 -16z"/>
</g>
</svg>
