<?xml version="1.0" standalone="no"?>
<!DOCTYPE svg PUBLIC "-//W3C//DTD SVG 20010904//EN"
 "http://www.w3.org/TR/2001/REC-SVG-20010904/DTD/svg10.dtd">
<svg version="1.0" xmlns="http://www.w3.org/2000/svg"
 width="100.000000pt" height="100.000000pt" viewBox="0 0 100.000000 100.000000"
 preserveAspectRatio="xMidYMid meet">

<g transform="translate(0.000000,100.000000) scale(0.100000,-0.100000)"
fill="#000000" stroke="none">
<path d="M430 967 c-71 -23 -130 -111 -130 -196 l0 -31 -80 0 c-58 0 -80 -3
-80 -13 0 -7 -18 -169 -40 -360 -22 -190 -40 -351 -40 -357 0 -7 148 -10 440
-10 292 0 440 3 440 10 0 6 -18 167 -40 357 -22 191 -40 353 -40 360 0 10 -22
13 -80 13 l-80 0 0 31 c0 144 -132 240 -270 196z m158 -54 c44 -33 65 -69 70
-122 l5 -51 -162 0 -161 0 0 34 c0 67 36 125 95 152 40 19 119 12 153 -13z
m-288 -233 c0 -11 -6 -29 -12 -40 -17 -26 0 -55 32 -55 32 0 49 29 32 55 -6
11 -12 29 -12 40 0 19 6 20 160 20 154 0 160 -1 160 -20 0 -11 -6 -29 -12 -40
-17 -26 0 -55 32 -55 32 0 49 29 32 55 -6 11 -12 29 -12 40 0 18 7 20 60 20
54 0 60 -2 64 -22 3 -13 19 -149 36 -303 17 -154 33 -292 36 -307 l6 -28 -402
0 -402 0 6 28 c3 15 19 153 36 307 17 154 33 290 36 303 4 20 10 22 64 22 53
0 60 -2 60 -20z"/>
</g>
</svg>
