<?xml version="1.0" standalone="no"?>
<!DOCTYPE svg PUBLIC "-//W3C//DTD SVG 20010904//EN"
 "http://www.w3.org/TR/2001/REC-SVG-20010904/DTD/svg10.dtd">
<svg version="1.0" xmlns="http://www.w3.org/2000/svg"
 width="48.000000pt" height="48.000000pt" viewBox="0 0 48.000000 48.000000"
 preserveAspectRatio="xMidYMid meet">
<metadata>
Created by potrace 1.16, written by Peter Selinger 2001-2019
</metadata>
<g transform="translate(0.000000,48.000000) scale(0.100000,-0.100000)"
fill="#000000" stroke="none">
<path d="M133 414 c-62 -37 -93 -95 -93 -174 0 -123 77 -200 200 -200 123 0
200 77 200 200 0 123 -77 200 -201 200 -51 0 -73 -5 -106 -26z m185 -44 c130
-79 74 -280 -78 -280 -152 0 -208 201 -78 280 43 26 113 26 156 0z"/>
<path d="M180 240 c0 -92 1 -100 19 -100 16 0 21 8 23 38 l3 37 20 -37 c15
-30 24 -38 47 -38 33 0 34 5 9 47 -19 31 -19 31 0 49 21 19 26 73 7 92 -7 7
-38 12 -70 12 l-58 0 0 -100z"/>
</g>
</svg>
