<?xml version="1.0" standalone="no"?>
<!DOCTYPE svg PUBLIC "-//W3C//DTD SVG 20010904//EN"
 "http://www.w3.org/TR/2001/REC-SVG-20010904/DTD/svg10.dtd">
<svg version="1.0" xmlns="http://www.w3.org/2000/svg"
 width="64.000000pt" height="64.000000pt" viewBox="0 0 64.000000 64.000000"
 preserveAspectRatio="xMidYMid meet">
<metadata>
Created by potrace 1.16, written by Peter Selinger 2001-2019
</metadata>
<g transform="translate(0.000000,64.000000) scale(0.100000,-0.100000)"
fill="#000000" stroke="none">
<path d="M303 521 c-40 -25 -53 -49 -53 -100 0 -39 -1 -40 -37 -43 l-38 -3 0
-55 0 -55 38 -3 37 -3 0 -80 0 -80 63 3 62 3 3 77 3 77 31 3 c29 3 33 7 44 52
7 28 11 53 8 58 -3 4 -25 8 -50 8 -63 0 -54 34 11 42 29 3 30 4 30 58 l0 55
-60 3 c-46 2 -68 -2 -92 -17z"/>
</g>
</svg>
