<?xml version="1.0" standalone="no"?>
<!DOCTYPE svg PUBLIC "-//W3C//DTD SVG 20010904//EN"
 "http://www.w3.org/TR/2001/REC-SVG-20010904/DTD/svg10.dtd">
<svg version="1.0" xmlns="http://www.w3.org/2000/svg"
 width="64.000000pt" height="64.000000pt" viewBox="0 0 64.000000 64.000000"
 preserveAspectRatio="xMidYMid meet">

<g transform="translate(0.000000,64.000000) scale(0.100000,-0.100000)"
fill="#000000" stroke="none">
<path d="M290 570 c0 -24 -5 -31 -27 -36 -46 -11 -116 -50 -144 -81 -54 -58
-73 -110 -77 -218 -2 -82 0 -106 15 -135 23 -44 73 -70 136 -70 40 0 54 5 78
29 34 35 35 48 9 124 -36 103 -21 167 42 167 58 0 73 -67 38 -167 -26 -76 -25
-89 9 -124 24 -24 38 -29 78 -29 63 0 113 26 136 70 15 29 17 53 15 135 -4
108 -23 160 -77 218 -28 31 -98 70 -143 81 -23 5 -28 12 -28 36 0 27 -3 30
-30 30 -27 0 -30 -3 -30 -30z m40 -10 c0 -11 -4 -20 -10 -20 -5 0 -10 9 -10
20 0 11 5 20 10 20 6 0 10 -9 10 -20z m105 -68 c47 -24 95 -73 121 -122 15
-28 19 -57 19 -147 0 -109 -1 -113 -27 -139 -21 -21 -39 -28 -81 -32 -92 -7
-123 28 -94 110 9 24 18 55 21 71 5 18 13 27 26 27 11 0 20 5 20 10 0 6 -8 10
-18 10 -26 0 -44 64 -23 84 19 19 7 33 -14 16 -20 -16 -110 -16 -130 0 -21 17
-33 3 -14 -16 21 -20 3 -84 -23 -84 -10 0 -18 -4 -18 -10 0 -5 9 -10 20 -10
13 0 21 -9 26 -27 3 -16 12 -47 21 -71 29 -82 -2 -117 -94 -110 -42 4 -60 11
-81 32 -26 26 -27 30 -27 139 0 90 4 119 19 147 35 67 95 118 166 141 41 14
142 3 185 -19z"/>
<path d="M90 250 c0 -22 5 -40 10 -40 6 0 10 18 10 40 0 22 -4 40 -10 40 -5 0
-10 -18 -10 -40z"/>
<path d="M90 170 c0 -11 5 -20 10 -20 6 0 10 9 10 20 0 11 -4 20 -10 20 -5 0
-10 -9 -10 -20z"/>
</g>
</svg>
