<?xml version="1.0" standalone="no"?>
<!DOCTYPE svg PUBLIC "-//W3C//DTD SVG 20010904//EN"
 "http://www.w3.org/TR/2001/REC-SVG-20010904/DTD/svg10.dtd">
<svg version="1.0" xmlns="http://www.w3.org/2000/svg"
 width="96.000000pt" height="96.000000pt" viewBox="0 0 96.000000 96.000000"
 preserveAspectRatio="xMidYMid meet">
<metadata>
Created by potrace 1.16, written by Peter Selinger 2001-2019
</metadata>
<g transform="translate(0.000000,96.000000) scale(0.100000,-0.100000)"
fill="#000000" stroke="none">
<path d="M440 842 l0 -38 -59 -12 c-151 -31 -285 -180 -298 -331 l-6 -61 44 0
c40 0 46 3 56 30 20 53 106 53 126 0 10 -27 16 -30 57 -30 41 0 47 3 57 30 20
53 106 53 126 0 10 -27 16 -30 57 -30 41 0 47 3 57 30 20 53 106 53 126 0 10
-27 16 -30 56 -30 l44 0 -6 61 c-13 151 -147 300 -298 331 l-59 12 0 38 c0 38
0 38 -40 38 -40 0 -40 0 -40 -38z m170 -159 c31 -14 73 -44 98 -71 l44 -47
-49 -5 c-27 -3 -61 -13 -76 -23 -25 -16 -28 -16 -59 3 -45 27 -131 27 -175 0
-33 -20 -33 -20 -65 0 -20 12 -51 20 -77 20 l-44 0 35 42 c63 76 173 121 273
110 22 -2 65 -15 95 -29z"/>
<path d="M440 304 c0 -52 -5 -104 -10 -115 -13 -23 -48 -25 -56 -4 -4 10 -20
15 -50 15 -41 0 -44 -2 -44 -26 0 -16 13 -39 34 -60 30 -30 40 -34 86 -34 46
0 56 4 86 34 l34 34 0 126 0 126 -40 0 -40 0 0 -96z"/>
</g>
</svg>
