<?xml version="1.0" standalone="no"?>
<!DOCTYPE svg PUBLIC "-//W3C//DTD SVG 20010904//EN"
 "http://www.w3.org/TR/2001/REC-SVG-20010904/DTD/svg10.dtd">
<svg version="1.0" xmlns="http://www.w3.org/2000/svg"
 width="100.000000pt" height="100.000000pt" viewBox="0 0 100.000000 100.000000"
 preserveAspectRatio="xMidYMid meet">
<metadata>
Created by potrace 1.16, written by Peter Selinger 2001-2019
</metadata>
<g transform="translate(0.000000,100.000000) scale(0.100000,-0.100000)"
fill="#000000" stroke="none">
<path d="M480 960 c0 -40 0 -40 -38 -40 -21 0 -63 -7 -93 -16 -190 -57 -316
-199 -327 -371 -4 -68 -3 -73 15 -73 11 0 28 9 39 21 60 66 178 66 238 0 24
-27 48 -27 72 0 20 22 66 49 84 49 13 0 14 -362 0 -412 -13 -46 -43 -68 -90
-68 -48 0 -77 23 -90 70 -8 29 -16 40 -30 40 -16 0 -20 -7 -20 -32 1 -131 191
-178 260 -65 18 29 20 51 20 250 0 145 3 217 10 217 18 0 64 -27 84 -49 11
-12 27 -21 36 -21 9 0 25 9 36 21 55 61 137 66 214 14 78 -52 84 -49 78 38
-11 172 -137 314 -327 371 -30 9 -72 16 -93 16 -38 0 -38 0 -38 40 0 33 -3 40
-20 40 -17 0 -20 -7 -20 -40z m171 -109 c136 -43 238 -148 269 -278 l7 -31
-31 19 c-21 13 -50 19 -88 19 -65 0 -103 -12 -135 -42 l-23 -21 -22 21 c-32
29 -71 42 -128 42 -57 0 -96 -13 -127 -42 l-23 -21 -22 21 c-13 11 -36 25 -51
31 -40 15 -131 14 -171 -3 l-34 -14 8 26 c40 133 135 230 266 272 82 26 222
26 305 1z"/>
</g>
</svg>
